<?xml version="1.0" encoding="UTF-8"?>
<svg id="Camada_1" xmlns="http://www.w3.org/2000/svg" version="1.1" viewBox="0 0 519.32 201.41">
  <!-- Generator: Adobe Illustrator 30.1.0, SVG Export Plug-In . SVG Version: 2.1.1 Build 136)  -->
  <defs>
    <style>
      .st0 {
        fill: #fff;
      }
    </style>
  </defs>
  <path class="st0" d="M125.77,117.81c9.92-9.92,15.39-23.12,15.39-37.15s-5.46-27.23-15.39-37.15c-9.92-9.92-23.12-15.39-37.15-15.39-.48,0-.96,0-1.44.02l-48.3-.02h-6.39v-.02h-7.77v153.8h7.77V31.5h6.39s31.05.03,31.05.03c-6.85,2.6-13.13,6.64-18.46,11.98-9.92,9.92-15.39,23.12-15.39,37.15s5.3,26.82,14.94,36.69l-.09.09,64.47,64.46h5.62l-52.8-52.8c6.37,2.69,13.28,4.1,20.41,4.1,14.03,0,27.23-5.46,37.15-15.39ZM53.74,114.63l-.09.09c-8.94-9.17-13.86-21.23-13.86-34.06s5.08-25.3,14.3-34.53c9.22-9.22,21.48-14.3,34.53-14.3s25.3,5.08,34.53,14.3,14.3,21.48,14.3,34.53-5.08,25.3-14.3,34.53c-9.22,9.22-21.48,14.3-34.53,14.3-11.84,0-23.03-4.2-31.9-11.88l-2.98-2.98Z"/>
  <g>
    <path class="st0" d="M177.37,43.49v17.16h-2.21v-17.16h2.21Z"/>
    <path class="st0" d="M181.24,60.65v-17.16h2.42l5.5,8.68c1.27,2.01,2.27,3.82,3.08,5.58l.05-.03c-.2-2.29-.25-4.38-.25-7.05v-7.18h2.09v17.16h-2.24l-5.45-8.71c-1.2-1.91-2.34-3.87-3.21-5.73l-.08.03c.13,2.16.18,4.23.18,7.08v7.33h-2.09Z"/>
    <path class="st0" d="M197.69,57.95c.99.61,2.44,1.12,3.97,1.12,2.27,0,3.59-1.2,3.59-2.93,0-1.6-.92-2.52-3.23-3.41-2.8-.99-4.53-2.44-4.53-4.86,0-2.67,2.22-4.66,5.55-4.66,1.76,0,3.03.41,3.79.84l-.61,1.81c-.56-.31-1.71-.81-3.26-.81-2.34,0-3.23,1.4-3.23,2.57,0,1.6,1.04,2.39,3.41,3.31,2.9,1.12,4.38,2.52,4.38,5.04,0,2.65-1.96,4.94-6.01,4.94-1.66,0-3.46-.48-4.38-1.1l.56-1.86Z"/>
    <path class="st0" d="M213.81,45.37h-5.22v-1.88h12.71v1.88h-5.25v15.28h-2.24v-15.28Z"/>
    <path class="st0" d="M225.42,43.49v17.16h-2.21v-17.16h2.21Z"/>
    <path class="st0" d="M232.55,45.37h-5.22v-1.88h12.71v1.88h-5.25v15.28h-2.24v-15.28Z"/>
    <path class="st0" d="M244.16,43.49v10.16c0,3.85,1.71,5.48,4,5.48,2.55,0,4.18-1.68,4.18-5.48v-10.16h2.24v10.01c0,5.27-2.78,7.44-6.49,7.44-3.51,0-6.16-2.01-6.16-7.33v-10.11h2.24Z"/>
    <path class="st0" d="M261.68,45.37h-5.22v-1.88h12.71v1.88h-5.25v15.28h-2.24v-15.28Z"/>
    <path class="st0" d="M285.06,51.89c0,5.91-3.59,9.04-7.97,9.04s-7.72-3.51-7.72-8.71c0-5.45,3.39-9.02,7.97-9.02s7.72,3.59,7.72,8.68ZM271.74,52.17c0,3.67,1.99,6.95,5.48,6.95s5.5-3.23,5.5-7.13c0-3.41-1.78-6.98-5.48-6.98s-5.5,3.39-5.5,7.16Z"/>
  </g>
  <text/>
  <g>
    <path class="st0" d="M195.54,134.52c0,6.19-4.86,11.25-11.07,11.52h-8.55v13.23h-1.83v-36.29h1.83s8.55.01,8.55.01c6.21.27,11.07,5.34,11.07,11.52ZM184.44,123.8l-8.52-.02v21.47h8.54c5.76-.28,10.28-4.99,10.28-10.73s-4.52-10.46-10.29-10.72Z"/>
    <path class="st0" d="M237.02,141.14c0,10-8.13,18.13-18.13,18.13s-18.13-8.13-18.13-18.13,8.13-18.13,18.13-18.13,18.13,8.13,18.13,18.13ZM206.54,128.73c-6.5,6.5-6.25,17.34.56,24.15,6.81,6.81,17.64,7.06,24.15.56,3.14-3.14,4.82-7.39,4.71-11.95-.1-4.57-1.98-8.9-5.27-12.19-3.51-3.51-8.09-5.28-12.59-5.28-4.24,0-8.41,1.57-11.56,4.72Z"/>
    <path class="st0" d="M265.19,122.98h1.83v36.29h-.98,0s-.78,0-.78,0h0s-.07,0-.07,0v-.12l-21.16-34.81v34.93h-1.83v-36.29h1.01,0s.78,0,.78,0h0s.05,0,.05,0v.08l21.16,34.81v-34.89Z"/>
    <path class="st0" d="M272.19,122.98h30.21v.72h-14.21v35.57h-1.83v-35.57h-14.16v-.72Z"/>
    <path class="st0" d="M307.65,122.98h20.15v.66h-18.4v22.74h13.66v.66h-13.66v11.55h18.4v.66h-18.4s-1.83,0-1.83,0v-36.29h.08Z"/>
    <path class="st0" d="M353.3,149.22c0,5.55-4.95,10.06-11.03,10.06-5.63,0-10.34-3.84-10.96-8.94l-.02-.19h.86l.02.15c.6,4.66,4.94,8.17,10.11,8.17s9.44-3.98,9.44-9.25c0-3.45-1.69-6.35-4.65-7.95l-7.85-4.5c-2.35-1.26-3.7-3.64-3.7-6.53,0-4.18,3.72-7.57,8.3-7.57,3.43,0,6.55,1.97,7.76,4.89l.1.24h-.91l-.05-.1c-1.15-2.57-3.86-4.22-6.9-4.22-3.98,0-7.1,2.97-7.1,6.77,0,2.51,1.1,4.53,3.09,5.7l7.85,4.5c3.5,1.78,5.67,5.15,5.67,8.78Z"/>
  </g>
  <g>
    <path class="st0" d="M288.15,103.01c-3.31,0-6.42-1.29-8.77-3.63-2.34-2.34-3.63-5.45-3.63-8.77s1.29-6.42,3.63-8.77c2.34-2.34,5.45-3.63,8.77-3.63s6.42,1.29,8.77,3.63,3.63,5.45,3.63,8.77-1.29,6.42-3.63,8.77c-2.34,2.34-5.45,3.63-8.77,3.63ZM288.15,79.1c-3.08,0-5.97,1.2-8.15,3.37-2.18,2.18-3.37,5.07-3.37,8.15s1.2,5.97,3.37,8.15,5.07,3.37,8.15,3.37,5.97-1.2,8.15-3.37,3.37-5.07,3.37-8.15-1.2-5.97-3.37-8.15c-2.18-2.18-5.07-3.37-8.15-3.37Z"/>
    <polygon class="st0" points="295.8 114.51 294.47 114.51 279.26 99.3 279.92 98.63 295.8 114.51"/>
    <path class="st0" d="M318.98,78.02l11.42,36.34h-2.23l-1.79-5.69h-20.06l-2.16,5.83h-.83l13.48-36.31-.07-.17h2.25ZM326.17,108.01l-8.99-28.61-10.62,28.61h19.61Z"/>
    <path class="st0" d="M357.04,89.75c0,6.19-4.86,11.25-11.07,11.52h-8.55v13.23h-1.83v-36.29h1.83s8.55.01,8.55.01c6.21.27,11.07,5.34,11.07,11.52ZM345.95,79.03l-8.52-.02v21.47h8.54c5.76-.28,10.28-4.99,10.28-10.73s-4.52-10.46-10.29-10.72Z"/>
    <path class="st0" d="M274.91,78.22h0s-1.83,0-1.83,0v36.29h1.83v-35.49h1.51s0-.8,0-.8h-1.51Z"/>
    <path class="st0" d="M384.68,78.22h1.83v36.29h-1.83v-9.78h-20.59v9.78h-1.83v-36.29h1.83v25.85h20.59v-25.85Z"/>
    <path class="st0" d="M407.38,78.02l11.42,36.34h-2.23l-1.79-5.69h-20.06l-2.16,5.83h-.83l13.48-36.31-.07-.17h2.25ZM414.57,108.01l-8.99-28.61-10.62,28.61h19.61Z"/>
    <path class="st0" d="M424.08,78.22h20.15v.66h-18.4v22.74h13.66v.66h-13.66v11.55h18.4v.66h-18.4s-1.83,0-1.83,0v-36.29h.08Z"/>
    <path class="st0" d="M450.9,113.49h17.88v.32h-19.36s0,0,0,0v-35.95h1.49v35.63ZM468.79,102.36v.32h-11.04s0,0,0,0v-24.78h1.49v24.46h9.55Z"/>
    <path class="st0" d="M489.66,78.02l11.42,36.34h-2.23l-1.79-5.69h-20.06l-2.16,5.83h-.83l13.48-36.31-.07-.17h2.25ZM496.85,108.01l-8.99-28.61-10.62,28.61h19.61Z"/>
    <rect class="st0" x="276.42" y="78.22" width="11.74" height=".8"/>
  </g>
  <g>
    <path class="st0" d="M198.53,96.05c0,9.92-8.07,17.99-17.99,17.99-.1,0-2.85.01-4.63.02h0s-1.38,0-1.38,0c-.07,0-.11,0-.11,0h-.17s-.16,0-.16,0v-36.01h.68s5.85,0,5.85,0c9.88.05,17.91,8.12,17.91,17.99ZM180.53,78.86h-4.63s0,34.41,0,34.41c1.76,0,4.49-.02,4.63-.02,9.48,0,17.19-7.71,17.19-17.19s-7.71-17.19-17.19-17.19Z"/>
    <path class="st0" d="M215.71,100.74c2.54,6.08,6.03,12.76,8.81,12.76h.17v.57h-.17c-2.54,0-5.89-3.89-8.73-10.15-.46-1.01-.87-2.02-1.23-3.01-.19.02-.38.03-.58.04h-8.48v13.13h-1.82v-36.01h1.82s8.48.01,8.48.01c6.16.27,10.99,5.3,10.99,11.44,0,5.55-3.95,10.19-9.25,11.23ZM215.4,99.98c5.02-.9,8.77-5.26,8.77-10.47,0-5.71-4.49-10.38-10.21-10.64l-8.46-.02v21.31l8.47-.02c.1,0,.2-.01.31-.02-1.05-3-1.66-5.61-1.87-6.54l-.03-.13.38-.64.12.36c.55,1.68,1.44,4.16,2.52,6.82Z"/>
    <path class="st0" d="M243.93,77.87l11.33,36.06h-2.21l-1.77-5.64h-19.91l-2.15,5.79h-.82l13.37-36.03-.07-.17h2.23ZM251.06,107.62l-8.92-28.39-10.54,28.39h19.46Z"/>
    <rect class="st0" x="256.47" y="111.49" width="2.21" height="2.21" rx="1.1" ry="1.1"/>
  </g>
</svg>